# xmcd
#
# Track frame offsets: 
#        150
#        15951
#        49264
#        73310
#        97970
#        127753
#        158023
#        178853
#        200166
#        236563
#        254256
#        274348
#        298078
#        315591
#
# Disc length: 4421 seconds
#
# Revision: 1
# Processed by: cddbd v1.5.2PL0 Copyright (c) Steve Scherf et al.
# Submitted via: ExactAudioCopy v1.1
#
DISCID=c911430e
DTITLE=Inakustik - Blues For When You Are Alone
DYEAR=2011
DGENRE=Blues
TTITLE0=Gary Barden - When A Blind Man Cries
TTITLE1=Dani Wilde - Abandoned Child
TTITLE2=Blues Company - Over The City
TTITLE3=Siggi Schwarz and Friends - Empty Rooms
TTITLE4=Meena - I'd Rather Go Blind
TTITLE5=Eamon McCormack - A Night In The Life Of An Old Blues Singer
TTITLE6=Miller Anderson - Falling Back Into The Blue
TTITLE7=Cadillac Blues Band - You've Been Gone
TTITLE8=Tinsley Ellis - Feelin' No Pain
TTITLE9=Mike Zito - Motel Blues
TTITLE10=Luther "Guitar Junior" Johnson - Home Alone
TTITLE11=Dave Kelly Band - It Hurts Me Too
TTITLE12=Chris Farlowe - Ain't No Love In The Heart Of The City
TTITLE13=Dana Fuchs - I've Been Loving You Too Long
EXTD=YEAR: 2011
EXTT0=
EXTT1=
EXTT2=
EXTT3=
EXTT4=
EXTT5=
EXTT6=
EXTT7=
EXTT8=
EXTT9=
EXTT10=
EXTT11=
EXTT12=
EXTT13=
PLAYORDER=
